<svg xmlns="http://www.w3.org/2000/svg" xmlns:xlink="http://www.w3.org/1999/xlink" width="76.824" height="59.794" viewBox="0 0 76.824 59.794">
  <defs>
    <linearGradient id="linear-gradient" x1="0.229" y1="0.388" x2="0.809" y2="0.546" gradientUnits="objectBoundingBox">
      <stop offset="0" stop-color="#0593fe"/>
      <stop offset="1" stop-color="#223462"/>
    </linearGradient>
    <linearGradient id="linear-gradient-2" x1="0.009" y1="1.164" x2="0.851" y2="0.381" xlink:href="#linear-gradient"/>
    <linearGradient id="linear-gradient-3" x1="-0.035" y1="0.756" x2="0.884" y2="0.222" xlink:href="#linear-gradient"/>
    <linearGradient id="linear-gradient-4" x1="0.088" y1="0.858" x2="0.881" y2="0.054" gradientUnits="objectBoundingBox">
      <stop offset="0" stop-color="#ffb92c"/>
      <stop offset="1" stop-color="#b89720"/>
    </linearGradient>
    <linearGradient id="linear-gradient-5" x1="0.959" y1="1.377" x2="0.077" y2="0.213" xlink:href="#linear-gradient"/>
    <linearGradient id="linear-gradient-6" x1="1.009" y1="0.925" x2="0.047" y2="0.132" xlink:href="#linear-gradient"/>
    <linearGradient id="linear-gradient-7" x1="0.975" y1="0.871" x2="0.039" y2="-0.006" xlink:href="#linear-gradient-4"/>
    <linearGradient id="linear-gradient-8" x1="0.478" y1="0.087" x2="0.531" y2="1.089" xlink:href="#linear-gradient"/>
    <linearGradient id="linear-gradient-9" x1="0.44" y1="-0.276" x2="0.516" y2="0.7" xlink:href="#linear-gradient"/>
    <linearGradient id="linear-gradient-10" x1="0.464" y1="-0.03" x2="0.542" y2="0.97" xlink:href="#linear-gradient"/>
    <linearGradient id="linear-gradient-11" x1="0.41" y1="-0.279" x2="0.563" y2="0.958" xlink:href="#linear-gradient"/>
    <linearGradient id="linear-gradient-12" x1="0.424" y1="-0.702" x2="0.53" y2="0.948" xlink:href="#linear-gradient"/>
    <linearGradient id="linear-gradient-13" x1="0.413" y1="-0.02" x2="0.534" y2="0.9" xlink:href="#linear-gradient"/>
    <linearGradient id="linear-gradient-14" x1="0.424" y1="-0.477" x2="0.5" y2="0.498" xlink:href="#linear-gradient"/>
    <linearGradient id="linear-gradient-15" x1="1.333" y1="1.636" x2="0.775" y2="0.629" xlink:href="#linear-gradient-4"/>
    <linearGradient id="linear-gradient-16" x1="1.019" y1="1.585" x2="0.394" y2="0.279" xlink:href="#linear-gradient-4"/>
    <linearGradient id="linear-gradient-17" x1="0.838" y1="1.206" x2="0.213" y2="-0.1" xlink:href="#linear-gradient-4"/>
    <linearGradient id="linear-gradient-18" x1="1.93" y1="0.946" x2="-1.248" y2="-0.047" xlink:href="#linear-gradient-4"/>
    <linearGradient id="linear-gradient-19" x1="0.582" y1="0.695" x2="-0.111" y2="-0.612" xlink:href="#linear-gradient-4"/>
  </defs>
  <g id="MST_LOGO" data-name="MST LOGO" transform="translate(-37.16 -160.595)">
    <g id="Group_241" data-name="Group 241" transform="translate(37.16 160.595)">
      <path id="Path_728" data-name="Path 728" d="M479.251,197.4a34.489,34.489,0,0,1,.089-3.641,4.923,4.923,0,0,1,2.041-2.219,4.968,4.968,0,0,0-1.716.6c.633-.675,1.318-.984,2.284-1.985,1.044-1.08,1.889-2.492,3.007-2.4a4.442,4.442,0,0,0-2.99.512c1.25-1,3.114-1.406,3.326-3.22a28.34,28.34,0,0,1,.741-4.964,15.91,15.91,0,0,1-2.694,1.418,6.018,6.018,0,0,0,2.341-2.154c.539-1.53,1.05-4,1.869-4.965a14.133,14.133,0,0,1-4.018,1.808c.511-.24,4.213-2.2,4.424-3.5a8.317,8.317,0,0,1,1.221-3.378,7.077,7.077,0,0,1-3.013,1.113,9.486,9.486,0,0,0,3.192-1.717,29.129,29.129,0,0,0,1.98-7c.107-1.355.036-1.342-.94-.7-.793.522-.964,2-1,1.979,0,0,.111-1.386.078-1.335a18.977,18.977,0,0,1-2.692,2.546c-2.491,2.469-2.807,2.32-2.807,2.32a10.7,10.7,0,0,1,.874,3.631c-.665-1.2-1.053-2.659-1.542-3.028.3,1.024-1.462,2.387-2.969,4.676a23.438,23.438,0,0,0,.651,2.708,4.711,4.711,0,0,1-1.332-1.584,38.956,38.956,0,0,0-2.775,5.933c.49,1.49,1.625,4.442,2.6,5.416-1.657-.868-2.478-4.318-3.5-4.559.463.806-.384,1.894-.845,3.513a6.127,6.127,0,0,0-.221,2.155,3.2,3.2,0,0,0,.975,1.889,9.732,9.732,0,0,1-1.458-.771c-.078.77,1.092,2.641,2.494,3.582a4.426,4.426,0,0,1,1.765,2.145,3.387,3.387,0,0,0-1.515-1.166,4.024,4.024,0,0,1,1.509,1.943c0,.108-.005.214-.006.32-.293-.32-.614-.395-.856-.213.35-.146.658.316.858.831a12.823,12.823,0,0,0,.484,3.463l.106.347Zm1.174-13.854a56.866,56.866,0,0,1,5.731-13.375c-4.221,7.847-7.159,19-7.011,26.844C478.355,193.95,478.8,189.193,480.425,183.543Z" transform="translate(-440.824 -160.595)" fill="url(#linear-gradient)"/>
      <path id="Path_729" data-name="Path 729" d="M574.368,592.234s-21.642-8.639-37.288,3.717c0,0,18.363-6.523,38.412.7Z" transform="translate(-498.668 -556.357)" fill="url(#linear-gradient-2)"/>
      <path id="Path_730" data-name="Path 730" d="M578.739,524.812l-2.811-5.037C554.286,515.6,543.54,529.8,543.54,529.8A40.846,40.846,0,0,1,578.739,524.812Z" transform="translate(-504.631 -491.468)" fill="url(#linear-gradient-3)"/>
      <path id="Path_731" data-name="Path 731" d="M573.335,454.085l-3.768-4.275c-21.023,0-26.017,14.942-26.017,14.942C552.234,451.632,573.335,454.085,573.335,454.085Z" transform="translate(-504.641 -427.588)" fill="url(#linear-gradient-4)"/>
      <path id="Path_732" data-name="Path 732" d="M38.284,592.232l-1.124,4.417c20.049-7.223,38.412-.7,38.412-.7C59.926,583.593,38.284,592.232,38.284,592.232Z" transform="translate(-37.16 -556.355)" fill="url(#linear-gradient-5)"/>
      <path id="Path_733" data-name="Path 733" d="M107.719,529.8s-10.746-14.2-32.388-10.026l-2.811,5.037A40.846,40.846,0,0,1,107.719,529.8Z" transform="translate(-69.803 -491.466)" fill="url(#linear-gradient-6)"/>
      <path id="Path_734" data-name="Path 734" d="M172.765,464.752s-4.994-14.942-26.017-14.942l-3.768,4.275S164.08,451.632,172.765,464.752Z" transform="translate(-134.849 -427.588)" fill="url(#linear-gradient-7)"/>
    </g>
    <g id="Group_244" data-name="Group 244" transform="translate(49.784 205.902)">
      <g id="Group_242" data-name="Group 242">
        <path id="Path_735" data-name="Path 735" d="M207.137,775.124a.113.113,0,0,1-.048.012h-.1a1.717,1.717,0,0,1-.395-.055,3.751,3.751,0,0,1-.437-.134,1.948,1.948,0,0,1-.365-.176.529.529,0,0,1-.188-.17c-.008-.114-.012-.231-.012-.353V773.9a21.229,21.229,0,0,1,.2-2.844,25.927,25.927,0,0,1,.662-3.209c.032-.113.067-.257.1-.431s.074-.363.115-.565a4.63,4.63,0,0,0-.693.735q-.4.5-.844,1.191t-.887,1.507q-.444.821-.808,1.665a17.785,17.785,0,0,0-.626,1.671,7.149,7.149,0,0,0-.322,1.531,2.687,2.687,0,0,1-.808-.34.506.506,0,0,1-.225-.413,2.134,2.134,0,0,1,.134-.62q.134-.4.376-.948t.6-1.222q.353-.674.778-1.452.486-.888.954-1.665t.917-1.41a10.618,10.618,0,0,1,.881-1.094,3.724,3.724,0,0,1,.857-.7,1.692,1.692,0,0,1,.456.085,4.8,4.8,0,0,1,1.046.456c.141.085.221.156.237.213a8.534,8.534,0,0,0-.4,1.021q-.231.681-.468,1.544t-.449,1.83q-.213.966-.334,1.853.279-.668.65-1.391t.784-1.434q.413-.711.844-1.379t.844-1.222q.413-.553.771-.966a3.738,3.738,0,0,1,.638-.608,1.69,1.69,0,0,1,.456.085,4.8,4.8,0,0,1,1.046.456c.141.085.221.156.237.213a8.112,8.112,0,0,0-.681,1.689,20.861,20.861,0,0,0-.493,2.09q-.2,1.094-.3,2.169t-.1,1.926v.583c0,.2.008.413.025.632a2.351,2.351,0,0,1-.407-.042,3.532,3.532,0,0,1-.462-.115,2.825,2.825,0,0,1-.407-.164.642.642,0,0,1-.255-.2c-.008-.114-.012-.231-.012-.353V773.9a21.227,21.227,0,0,1,.2-2.844,25.926,25.926,0,0,1,.662-3.209c.032-.113.068-.267.109-.462s.081-.4.121-.608a2.838,2.838,0,0,0-.771.65,9.4,9.4,0,0,0-.875,1.166q-.444.687-.875,1.525T208,771.823a16.471,16.471,0,0,0-.583,1.726A8.183,8.183,0,0,0,207.137,775.124Z" transform="translate(-201.46 -764.125)" fill="url(#linear-gradient-8)"/>
        <path id="Path_736" data-name="Path 736" d="M331.412,810.616q-.28.888-.559,1.617a13.574,13.574,0,0,1-.6,1.343,9.425,9.425,0,0,1-.681,1.13,8.788,8.788,0,0,1-.8.978,4.49,4.49,0,0,1-1.155.894,2.561,2.561,0,0,1-1.191.31,2.735,2.735,0,0,1-.6-.067,3.031,3.031,0,0,1-.559-.182,2.286,2.286,0,0,1-.462-.267.957.957,0,0,1-.286-.322.308.308,0,0,1,.17-.255q.146.134.243.207a1.513,1.513,0,0,0,.188.121.543.543,0,0,0,.194.061,2.184,2.184,0,0,0,.237.012,2.562,2.562,0,0,0,1.355-.407,4.845,4.845,0,0,0,1.252-1.155,8.875,8.875,0,0,0,1.076-1.811,14.457,14.457,0,0,0,.827-2.376q-.158.243-.389.594t-.51.7a6.143,6.143,0,0,1-.577.624,1.678,1.678,0,0,1-.577.376,1.358,1.358,0,0,1-.407-.067,1.647,1.647,0,0,1-.4-.19,1.52,1.52,0,0,1-.334-.293.887.887,0,0,1-.194-.391,5.005,5.005,0,0,1,.025-.565,3.963,3.963,0,0,1,.085-.468,9.532,9.532,0,0,1,.322-1.045,10.655,10.655,0,0,1,.5-1.149,8.55,8.55,0,0,1,.632-1.057,3.339,3.339,0,0,1,.723-.771,1.988,1.988,0,0,1,.243.018,1.8,1.8,0,0,1,.3.067,2.421,2.421,0,0,1,.3.115.864.864,0,0,1,.255.176,5.974,5.974,0,0,0-.583.814,13.288,13.288,0,0,0-1,1.993q-.061.134-.146.389t-.164.535c-.053.187-.1.369-.14.547a2.025,2.025,0,0,0-.061.426.274.274,0,0,0,.031.146.416.416,0,0,0,.055.073,1.369,1.369,0,0,0,.583-.359,5.443,5.443,0,0,0,.827-1c.194-.292.373-.581.535-.869s.322-.577.48-.869.322-.592.493-.9.353-.624.547-.948a1.779,1.779,0,0,1,.34.036,3.194,3.194,0,0,1,.353.091,1.862,1.862,0,0,1,.3.121.618.618,0,0,1,.188.14q-.377.8-.7,1.568T331.412,810.616Z" transform="translate(-315.065 -802.399)" fill="url(#linear-gradient-9)"/>
        <path id="Path_737" data-name="Path 737" d="M447.164,765.757c.025.138.042.233.055.286a.98.98,0,0,1,.018.213,1.635,1.635,0,0,1-.176.748,1.049,1.049,0,0,1-.48.492,2.385,2.385,0,0,0-.6-.565,3.543,3.543,0,0,0-.771-.389,4.848,4.848,0,0,0-.869-.225,5.49,5.49,0,0,0-.875-.073,4.485,4.485,0,0,0-.8.067,3.338,3.338,0,0,0-.656.182,1.273,1.273,0,0,0-.449.286.546.546,0,0,0-.164.389.948.948,0,0,0,.328.541,4.482,4.482,0,0,0,.717.535q.425.262.942.516t1.015.486q.62.292,1.07.541a3.206,3.206,0,0,1,.741.547,1.972,1.972,0,0,1,.437.675,2.52,2.52,0,0,1,.146.911,3.226,3.226,0,0,1-.207,1.16,2.7,2.7,0,0,1-.6.942,2.784,2.784,0,0,1-.954.626,3.328,3.328,0,0,1-1.252.225,5.841,5.841,0,0,1-1.471-.207,7.044,7.044,0,0,1-1.477-.565,4.443,4.443,0,0,1-1.143-.827,1.411,1.411,0,0,1-.456-.99,1.877,1.877,0,0,1,.14-.62,2.592,2.592,0,0,1,.5-.79,1.9,1.9,0,0,0,.395.863,3.477,3.477,0,0,0,1.076.924,5.2,5.2,0,0,0,1.379.565,5.542,5.542,0,0,0,1.331.176,3.013,3.013,0,0,0,1.106-.171,2.026,2.026,0,0,0,.669-.407,1.454,1.454,0,0,0,.449-.869.735.735,0,0,0-.225-.468,2.642,2.642,0,0,0-.571-.437,9.319,9.319,0,0,0-.832-.432q-.474-.219-.984-.437-.765-.34-1.318-.638a5.041,5.041,0,0,1-.911-.608,2.052,2.052,0,0,1-.522-.65,1.773,1.773,0,0,1-.164-.778,2.253,2.253,0,0,1,.413-1.289,2.553,2.553,0,0,1,1.191-.924,3.475,3.475,0,0,1,.832-.243,5.378,5.378,0,0,1,.869-.073,5.671,5.671,0,0,1,1.567.219A11.444,11.444,0,0,1,447.164,765.757Z" transform="translate(-420.97 -763.848)" fill="url(#linear-gradient-10)"/>
        <path id="Path_738" data-name="Path 738" d="M550.5,787.535a.779.779,0,0,1-.109-.31,2.077,2.077,0,0,1-.048-.407,4.015,4.015,0,0,0,.608.048h.535q.182-.361.4-.715t.413-.649a5.691,5.691,0,0,1,.376-.5,1.42,1.42,0,0,1,.274-.264,1.454,1.454,0,0,1,.31.042,3.918,3.918,0,0,1,.383.109q.195.067.353.14a.635.635,0,0,1,.219.146q-.364.459-.626.851t-.565.9h.493a3.632,3.632,0,0,0,.5-.036.45.45,0,0,1,.1.152.5.5,0,0,1,.036.188,4.015,4.015,0,0,1-1.446.231q-.3.585-.541,1.163t-.4,1.115a9.8,9.8,0,0,0-.255,1.011,4.582,4.582,0,0,0-.091.853q0,.536.4.6a2.821,2.821,0,0,0,.693-.182,2.294,2.294,0,0,0,.583-.34.52.52,0,0,1,.085.182,1.314,1.314,0,0,1-.249.254q-.176.145-.383.284a3.6,3.6,0,0,1-.4.235,1.019,1.019,0,0,1-.292.108,1.633,1.633,0,0,1-.608-.121,2.529,2.529,0,0,1-.553-.3,1.768,1.768,0,0,1-.407-.408.773.773,0,0,1-.158-.444,4.324,4.324,0,0,1,.079-.736q.078-.444.225-.967t.34-1.095q.195-.572.426-1.132H550.5Z" transform="translate(-523.33 -782.09)" fill="url(#linear-gradient-11)"/>
        <path id="Path_739" data-name="Path 739" d="M602.921,812.232a.942.942,0,0,1-.31-.486,1.942,1.942,0,0,1-.079-.5,1.381,1.381,0,0,1,.061-.437q-.048,0-.219.194c-.114.129-.237.283-.37.46s-.266.351-.395.521-.227.3-.292.376a1.893,1.893,0,0,1-.3.267.59.59,0,0,1-.225.109,1.358,1.358,0,0,1-.407-.067,1.657,1.657,0,0,1-.4-.19,1.392,1.392,0,0,1-.328-.294.927.927,0,0,1-.188-.391c0-.227.006-.413.018-.559a3.219,3.219,0,0,1,.079-.474,9.546,9.546,0,0,1,.322-1.045,11.266,11.266,0,0,1,.492-1.149,7.91,7.91,0,0,1,.626-1.057,3.2,3.2,0,0,1,.735-.771,2.053,2.053,0,0,1,.255.018,1.646,1.646,0,0,1,.3.067,2.3,2.3,0,0,1,.292.115.737.737,0,0,1,.237.176,9.807,9.807,0,0,0-.553.814,13.66,13.66,0,0,0-.99,1.993c-.041.089-.089.219-.146.389s-.114.349-.17.535-.1.369-.14.547a2.214,2.214,0,0,0-.055.426.274.274,0,0,0,.031.146.416.416,0,0,0,.055.073,1.413,1.413,0,0,0,.462-.4q.279-.328.778-1.009c.081-.114.176-.243.286-.389s.221-.3.334-.468.221-.338.322-.516a3.474,3.474,0,0,0,.249-.535c.032-.1.075-.213.128-.347a4.119,4.119,0,0,1,.194-.42,4.676,4.676,0,0,1,.267-.443,2.481,2.481,0,0,1,.359-.42,1.78,1.78,0,0,1,.34.036,2.885,2.885,0,0,1,.346.091,1.743,1.743,0,0,1,.286.121.643.643,0,0,1,.182.14q-.219.535-.486,1.057t-.5,1.027a8.879,8.879,0,0,0-.389,1,3.212,3.212,0,0,0-.158.972,2.027,2.027,0,0,0,.042.443,2.242,2.242,0,0,0,.091.316,2.3,2.3,0,0,0,.091.213.338.338,0,0,1,.042.146c0,.008-.008.02-.025.037a.038.038,0,0,1-.025.012.864.864,0,0,1-.219-.037,2.843,2.843,0,0,1-.3-.1c-.109-.045-.219-.1-.328-.152S603.018,812.3,602.921,812.232Z" transform="translate(-568.888 -802.399)" fill="url(#linear-gradient-12)"/>
        <path id="Path_740" data-name="Path 740" d="M678.907,754.674a1.362,1.362,0,0,1,.559.146,2.077,2.077,0,0,1,.559.376q-.061-.486-.152-.917a5.987,5.987,0,0,0-.267-.894,8.986,8.986,0,0,0-.468-1.009q-.292-.547-.729-1.252a.8.8,0,0,1,.164-.255,2.071,2.071,0,0,1,.292-.273,2.6,2.6,0,0,1,.34-.225,1.025,1.025,0,0,1,.334-.121,4.75,4.75,0,0,1,.644.942,8.869,8.869,0,0,1,.894,2.559,7.3,7.3,0,0,1,.128,1.325,6.351,6.351,0,0,1-.14,1.3,8.174,8.174,0,0,1-.389,1.306,9.026,9.026,0,0,1-.577,1.209,6.78,6.78,0,0,1-.711,1.021,4.191,4.191,0,0,1-.8.735,1.463,1.463,0,0,1-2.109-.182,1.651,1.651,0,0,1-.443-1.222,3.544,3.544,0,0,1,.128-.9,6.343,6.343,0,0,1,.34-.966,7.359,7.359,0,0,1,.5-.936,6.281,6.281,0,0,1,.608-.821,4.9,4.9,0,0,1,.65-.62A1.653,1.653,0,0,1,678.907,754.674Zm-1.24,5.846a2.045,2.045,0,0,0,.851-.644,5.86,5.86,0,0,0,.765-1.173,7.833,7.833,0,0,0,.553-1.446,5.608,5.608,0,0,0,.213-1.489v-.255a.389.389,0,0,0-.012-.1,2.284,2.284,0,0,0-.62.413,6.971,6.971,0,0,0-.656.675,7.759,7.759,0,0,0-.62.832,10.337,10.337,0,0,0-.523.9,5.862,5.862,0,0,0-.365.863,2.41,2.41,0,0,0-.134.729A.613.613,0,0,0,677.667,760.52Z" transform="translate(-639.575 -750.25)" fill="url(#linear-gradient-13)"/>
        <path id="Path_741" data-name="Path 741" d="M724.012,810.616q-.28.888-.559,1.617a13.6,13.6,0,0,1-.6,1.343,9.429,9.429,0,0,1-.681,1.13,8.792,8.792,0,0,1-.8.978,4.49,4.49,0,0,1-1.155.894,2.561,2.561,0,0,1-1.191.31,2.735,2.735,0,0,1-.6-.067,3.033,3.033,0,0,1-.559-.182,2.288,2.288,0,0,1-.462-.267.957.957,0,0,1-.286-.322.308.308,0,0,1,.17-.255c.1.089.178.158.243.207a1.515,1.515,0,0,0,.188.121.543.543,0,0,0,.194.061,2.183,2.183,0,0,0,.237.012,2.562,2.562,0,0,0,1.355-.407,4.844,4.844,0,0,0,1.252-1.155,8.876,8.876,0,0,0,1.076-1.811,14.462,14.462,0,0,0,.827-2.376q-.158.243-.389.594t-.51.7a6.143,6.143,0,0,1-.577.624,1.678,1.678,0,0,1-.577.376,1.358,1.358,0,0,1-.407-.067,1.648,1.648,0,0,1-.4-.19,1.52,1.52,0,0,1-.334-.293.888.888,0,0,1-.194-.391,4.988,4.988,0,0,1,.025-.565,3.963,3.963,0,0,1,.085-.468,9.532,9.532,0,0,1,.322-1.045,10.655,10.655,0,0,1,.5-1.149,8.553,8.553,0,0,1,.632-1.057,3.338,3.338,0,0,1,.723-.771,1.988,1.988,0,0,1,.243.018,1.8,1.8,0,0,1,.3.067,2.431,2.431,0,0,1,.3.115.864.864,0,0,1,.255.176,5.988,5.988,0,0,0-.583.814,13.29,13.29,0,0,0-1,1.993q-.061.134-.146.389t-.164.535c-.053.187-.1.369-.14.547a2.019,2.019,0,0,0-.061.426.274.274,0,0,0,.031.146.413.413,0,0,0,.055.073,1.369,1.369,0,0,0,.583-.359,5.443,5.443,0,0,0,.827-1c.194-.292.373-.581.535-.869s.322-.577.48-.869.322-.592.493-.9.353-.624.547-.948a1.779,1.779,0,0,1,.34.036,3.2,3.2,0,0,1,.353.091,1.862,1.862,0,0,1,.3.121.617.617,0,0,1,.188.14q-.377.8-.7,1.568T724.012,810.616Z" transform="translate(-677.498 -802.399)" fill="url(#linear-gradient-14)"/>
      </g>
      <g id="Group_243" data-name="Group 243" transform="translate(41.784 0.085)">
        <path id="Path_742" data-name="Path 742" d="M746.277,754.858a.095.095,0,0,1-.1-.1v-2.484h-.811a.095.095,0,0,1-.1-.1V752a.1.1,0,0,1,.028-.074.094.094,0,0,1,.07-.028H747.4a.1.1,0,0,1,.1.1v.177a.094.094,0,0,1-.028.07.1.1,0,0,1-.074.028H746.6v2.484a.094.094,0,0,1-.028.07.1.1,0,0,1-.074.028Z" transform="translate(-745.27 -751.858)" fill="url(#linear-gradient-15)"/>
        <path id="Path_743" data-name="Path 743" d="M774.267,763.541a1.073,1.073,0,0,1-.536-.122.823.823,0,0,1-.33-.34,1.171,1.171,0,0,1-.127-.5c0-.048,0-.109,0-.184s0-.134,0-.18a1.143,1.143,0,0,1,.129-.5.843.843,0,0,1,.332-.338,1.222,1.222,0,0,1,1.065,0,.841.841,0,0,1,.332.338,1.142,1.142,0,0,1,.129.5c0,.045,0,.105,0,.18s0,.136,0,.184a1.171,1.171,0,0,1-.127.5.826.826,0,0,1-.33.34A1.081,1.081,0,0,1,774.267,763.541Zm0-.325a.544.544,0,0,0,.418-.167.731.731,0,0,0,.169-.488c0-.042,0-.1,0-.161s0-.118,0-.161a.731.731,0,0,0-.169-.488.545.545,0,0,0-.418-.167.551.551,0,0,0-.42.167.713.713,0,0,0-.167.488c0,.042,0,.1,0,.161s0,.118,0,.161a.711.711,0,0,0,.167.488A.555.555,0,0,0,774.267,763.216Z" transform="translate(-771.119 -760.498)" fill="url(#linear-gradient-16)"/>
        <path id="Path_744" data-name="Path 744" d="M805.827,763.541a1.073,1.073,0,0,1-.536-.122.822.822,0,0,1-.33-.34,1.169,1.169,0,0,1-.127-.5c0-.048,0-.109,0-.184s0-.134,0-.18a1.142,1.142,0,0,1,.129-.5.842.842,0,0,1,.332-.338,1.222,1.222,0,0,1,1.065,0,.842.842,0,0,1,.332.338,1.142,1.142,0,0,1,.129.5c0,.045,0,.105,0,.18s0,.136,0,.184a1.171,1.171,0,0,1-.127.5.828.828,0,0,1-.33.34A1.082,1.082,0,0,1,805.827,763.541Zm0-.325a.544.544,0,0,0,.418-.167.731.731,0,0,0,.169-.488c0-.042,0-.1,0-.161s0-.118,0-.161a.731.731,0,0,0-.169-.488.545.545,0,0,0-.418-.167.551.551,0,0,0-.42.167.713.713,0,0,0-.167.488c0,.042,0,.1,0,.161s0,.118,0,.161a.711.711,0,0,0,.167.488A.555.555,0,0,0,805.827,763.216Z" transform="translate(-800.254 -760.498)" fill="url(#linear-gradient-17)"/>
        <path id="Path_745" data-name="Path 745" d="M837.8,754.351a.095.095,0,0,1-.1-.1v-2.805a.095.095,0,0,1,.1-.1h.2a.092.092,0,0,1,.072.028.1.1,0,0,1,.025.07v2.805a.1.1,0,0,1-.025.07.092.092,0,0,1-.072.028Z" transform="translate(-830.598 -751.35)" fill="url(#linear-gradient-18)"/>
        <path id="Path_746" data-name="Path 746" d="M850.149,763.541a1.242,1.242,0,0,1-.406-.059.917.917,0,0,1-.274-.144.7.7,0,0,1-.158-.169.324.324,0,0,1-.057-.135.075.075,0,0,1,.029-.071.112.112,0,0,1,.068-.025h.186a.112.112,0,0,1,.04.006.126.126,0,0,1,.04.036c.037.039.078.079.122.118a.554.554,0,0,0,.167.1.818.818,0,0,0,.6-.045.265.265,0,0,0,.139-.243.244.244,0,0,0-.057-.169.487.487,0,0,0-.2-.114,3.466,3.466,0,0,0-.4-.105,1.454,1.454,0,0,1-.4-.146.537.537,0,0,1-.211-.207.576.576,0,0,1-.063-.273.55.55,0,0,1,.093-.3.7.7,0,0,1,.273-.239.97.97,0,0,1,.45-.093,1.147,1.147,0,0,1,.376.055.847.847,0,0,1,.257.138.686.686,0,0,1,.152.163.307.307,0,0,1,.055.135.078.078,0,0,1-.025.07.1.1,0,0,1-.068.028H850.7a.084.084,0,0,1-.048-.012.313.313,0,0,1-.036-.029,1.073,1.073,0,0,0-.1-.11.441.441,0,0,0-.148-.091.663.663,0,0,0-.239-.036.482.482,0,0,0-.317.088.279.279,0,0,0-.105.224.237.237,0,0,0,.046.144.39.39,0,0,0,.177.114,2.993,2.993,0,0,0,.389.11,1.476,1.476,0,0,1,.44.148.591.591,0,0,1,.228.215.573.573,0,0,1,.068.283.553.553,0,0,1-.1.325.7.7,0,0,1-.3.234A1.238,1.238,0,0,1,850.149,763.541Z" transform="translate(-841.263 -760.498)" fill="url(#linear-gradient-19)"/>
      </g>
    </g>
  </g>
</svg>
